<svg viewBox="0 0 121 120" fill="#303030" xmlns="http://www.w3.org/2000/svg">
    <path fill-rule="evenodd" class="akrs-logo-shape" clip-rule="evenodd" d="M51.5 53.7021L41.5 0H16.3186L0.3186 25.1355V62.7325L6.87414 61.5772L10.3186 53.5L17.0413 59.7855L51.5 53.7021ZM48.198 0L58.5588 52.5L120.059 41.5851L91.9963 16L95.9221 0H48.198ZM25.8735 63.163L0 67.7021V119.702H60.8911L53.6211 111.03C59.6685 104.361 62.5869 95.225 60.9121 85.7119C58.0044 69.1946 42.2861 60.2737 25.8735 63.163ZM120 46.7021V119.702H71L66 92.2021L80.7603 89.1696L80.6313 88.4378C70.0366 88.2551 64.1748 83.2152 62.5 73.7021L59.5 57.5848L120 46.7021ZM24 88.5609L32.0029 87.1293L32.0059 87.1456C32.123 87.1133 32.2432 87.0861 32.3662 87.0642C34.5762 86.6689 36.6875 88.1398 37.083 90.3497C37.4785 92.5595 36.0078 94.6714 33.7979 95.0667C33.6748 95.0886 33.5527 95.1048 33.4316 95.1155L33.4346 95.1318L25.4316 96.5634L24 88.5609Z"/>
</svg>