<svg width="389" height="158" viewBox="0 0 389 158" fill="none" xmlns="http://www.w3.org/2000/svg">
<path d="M85.5032 120.647C72.5952 133.437 51.7539 133.319 38.9632 120.411C26.1739 107.503 26.2925 86.6601 39.1992 73.8708C52.1085 61.0801 72.8325 61.1988 85.6219 74.1068C98.5312 87.0148 98.4126 107.857 85.5032 120.647ZM124.642 151.556V150.431V91.3388C123.518 77.3041 118.13 64.9881 108.419 54.5081C105.458 51.4294 102.438 48.6454 99.2405 46.3374C91.1885 40.0601 78.5165 35.9747 64.2472 35.9747C55.8392 35.9747 47.9045 37.3961 41.2125 39.8241H40.9752C37.8979 40.7121 35.3512 38.8174 35.2325 35.6188V2.28408C34.8779 -0.263917 32.9232 -0.795913 30.7325 1.27742L4.32455 30.1134C1.89654 32.5401 0.00187753 37.1587 0.00187753 40.4747V97.2001C-0.116789 113.956 5.38988 128.285 16.4632 140.128C26.5872 150.963 38.5485 156.885 52.5232 157.892H118.603C121.801 157.715 124.642 154.753 124.642 151.556Z" fill="#231F20"/>
<path d="M278.467 99.9983C278.48 100.138 278.436 100.278 278.344 100.38C278.258 100.474 278.139 100.526 278.011 100.526H249.795C249.666 100.526 249.547 100.473 249.459 100.377C249.368 100.277 249.323 100.138 249.335 99.9996C249.47 98.6009 249.842 97.2303 250.439 95.9263C251.18 94.3129 252.211 92.8623 253.499 91.6143C254.79 90.3636 256.319 89.3596 258.047 88.6236C259.768 87.8903 261.672 87.5196 263.706 87.5196C265.976 87.5196 268.036 87.8689 269.83 88.5609C271.618 89.2503 273.17 90.2103 274.44 91.4116C275.708 92.6116 276.7 94.0489 277.391 95.6849C277.959 97.0369 278.322 98.4889 278.467 99.9983ZM281 87.1036C279.011 85.0583 276.564 83.4329 273.728 82.2729C270.895 81.1129 267.691 80.5263 264.207 80.5263C260.586 80.5263 257.27 81.1756 254.348 82.4596C251.43 83.7436 248.908 85.4996 246.856 87.6796C244.802 89.8609 243.202 92.4236 242.102 95.2983C240.999 98.1689 240.44 101.218 240.44 104.365C240.44 107.753 241.006 111.012 242.122 114.045C243.24 117.084 244.847 119.792 246.896 122.092C248.954 124.398 251.484 126.256 254.415 127.616C257.352 128.976 260.682 129.666 264.308 129.666C266.843 129.666 269.324 129.314 271.679 128.621C274.038 127.924 276.222 126.906 278.171 125.593C280.127 124.277 281.827 122.626 283.226 120.686C284.39 119.068 285.283 117.236 285.88 115.242C286.008 114.812 286.147 114.16 285.88 113.802C285.616 113.45 284.999 113.449 284.559 113.449H279.507C278.954 113.449 278.456 113.786 278.239 114.305C275.846 119.997 271.288 122.764 264.308 122.764C262.216 122.764 260.244 122.304 258.448 121.398C256.639 120.485 255.042 119.253 253.7 117.737C252.355 116.216 251.278 114.441 250.499 112.464C249.838 110.78 249.44 109.029 249.319 107.26C249.311 107.141 249.352 107.029 249.436 106.94C249.524 106.845 249.652 106.789 249.782 106.789H286.302C286.81 106.789 287.22 106.377 287.22 105.869V103.589C287.22 100.322 286.679 97.2409 285.612 94.4289C284.542 91.6129 282.991 89.1476 281 87.1036Z" fill="#231F20"/>
<path d="M334.988 88.7818C334.28 86.9645 333.205 85.3912 331.881 84.2338C330.79 83.2778 329.042 82.0178 326.949 81.4485C325.1 80.8192 323.002 80.5258 320.349 80.5258H295.366C294.858 80.5258 294.446 80.9365 294.446 81.4445V129.08C294.446 129.587 294.858 130 295.366 130H301.92C302.428 130 302.84 129.587 302.84 129.08V95.4818C302.84 94.0325 303.066 92.6378 303.466 91.6365C303.834 90.6125 304.465 89.6578 305.126 89.1365C305.77 88.5938 306.657 88.1285 307.906 87.6925C307.949 87.6778 307.992 87.6645 308.034 87.6552C309.126 87.4205 310.361 87.1618 311.69 87.1618H319.041C320.608 87.1618 321.757 87.3192 322.825 87.6845C323.912 87.9165 324.89 88.4232 325.606 89.1378C326.374 89.7832 326.946 90.6432 327.261 91.6218C327.692 92.9592 327.893 94.1858 327.893 95.4818V129.08C327.893 129.587 328.304 130 328.812 130H335.365C335.873 130 336.286 129.587 336.286 129.08V94.7365C336.284 94.7005 336.282 94.6658 336.281 94.6312C336.062 92.3872 335.626 90.4205 334.988 88.7818Z" fill="#231F20"/>
<path d="M355.458 117.602C354.272 115.866 353.387 113.964 352.822 111.932C352.223 109.906 351.943 107.689 351.943 104.957C351.943 102.298 352.239 99.9531 352.822 97.9824C353.462 95.8251 354.323 93.9704 355.458 92.3118C356.498 90.7878 357.952 89.4971 359.652 88.5838C361.039 87.8918 364.395 87.3411 366.862 87.2051C366.882 87.2038 366.903 87.2038 366.924 87.2038H379.018C379.523 87.2038 379.936 87.6171 379.936 88.1238V121.792C379.936 122.297 379.523 122.71 379.018 122.71H366.934C366.914 122.71 366.895 122.71 366.875 122.709C364.294 122.573 361.056 122.141 359.652 121.33C357.967 120.486 356.595 119.268 355.458 117.602ZM387.778 64.0691H381.142C380.634 64.0691 380.222 64.4798 380.222 64.9878V79.5238C380.222 80.0304 379.808 80.4438 379.303 80.4438H367.207C364.035 80.4438 358.326 81.0544 355.563 82.4131C352.666 83.8851 350.402 85.6598 348.84 87.6784C347.026 89.9064 345.69 92.4958 344.755 95.5944C343.85 98.5958 343.43 101.634 343.43 105.161C343.43 108.404 343.93 111.712 344.876 114.728C345.751 117.626 347.167 120.29 349.086 122.644C350.895 124.866 353.124 126.59 355.898 127.913C358.531 129.189 363.984 129.878 367.778 129.878H387.778C388.286 129.878 388.698 129.466 388.698 128.96V64.9878C388.698 64.4798 388.286 64.0691 387.778 64.0691Z" fill="#231F20"/>
<path d="M232.351 63.9866H225.797C225.289 63.9866 224.878 64.3986 224.878 64.9052V129.08C224.878 129.588 225.289 130.001 225.797 130.001H232.351C232.859 130.001 233.27 129.588 233.27 129.08V64.9052C233.27 64.3986 232.859 63.9866 232.351 63.9866Z" fill="#231F20"/>
<path d="M173.608 121.813V99.3132C173.608 98.8066 174.021 98.3946 174.527 98.3946H190.608C193.505 98.3946 196.136 98.7346 198.428 99.4066C200.713 100.075 202.672 100.993 204.249 102.133C205.813 103.265 207.021 104.601 207.839 106.108C208.652 107.605 209.067 109.205 209.067 110.86C209.067 112.872 208.599 114.64 207.677 116.119C206.744 117.613 205.521 118.861 204.041 119.827C202.545 120.804 200.848 121.54 198.996 122.013C197.129 122.491 195.236 122.732 193.373 122.732H174.527C174.021 122.732 173.608 122.319 173.608 121.813ZM204.567 84.7679C203.877 86.0652 202.911 87.2132 201.695 88.1746C200.468 89.1452 198.972 89.9292 197.252 90.5079C195.531 91.0839 193.6 91.3759 191.513 91.3759H174.527C174.021 91.3759 173.608 90.9626 173.608 90.4559V72.1746C173.608 71.6692 174.021 71.2559 174.527 71.2559H192.871C195.096 71.2559 197.04 71.5039 198.649 71.9919C200.245 72.4759 201.572 73.1412 202.595 73.9706C203.605 74.7906 204.364 75.7826 204.853 76.9119C205.345 78.0599 205.595 79.3159 205.595 80.6519C205.595 82.0946 205.248 83.4799 204.567 84.7679ZM214.307 101.169C213.103 99.7292 211.515 98.4146 209.584 97.2639C208.417 96.5666 207.089 95.9479 205.613 95.4092C204.889 95.1452 204.785 94.1826 205.433 93.7679C207.744 92.2892 209.556 90.5612 210.841 88.6052C212.611 85.9119 213.508 82.9279 213.508 79.7332C213.508 77.5972 213.035 75.5466 212.103 73.6412C211.171 71.7399 209.817 70.0626 208.08 68.6506C206.349 67.2466 204.208 66.1172 201.72 65.2932C199.236 64.4719 196.393 64.0559 193.275 64.0559H166.011C165.503 64.0559 165.091 64.4679 165.091 64.9759V129.012C165.091 129.52 165.503 129.932 166.011 129.932H196.544C199.304 129.932 201.993 129.436 204.533 128.457C207.075 127.479 209.347 126.124 211.288 124.433C213.235 122.736 214.809 120.732 215.972 118.475C217.141 116.204 217.735 113.751 217.735 111.181C217.735 109.371 217.465 107.596 216.933 105.909C216.399 104.211 215.515 102.617 214.307 101.169Z" fill="#231F20"/>
</svg>
