<svg width="2572" height="606" viewBox="0 0 2572 606" fill="none" xmlns="http://www.w3.org/2000/svg">
<path d="M636.105 502.999V223.993H707.645V290.934L702.535 281.225C708.667 257.719 718.717 241.878 732.685 233.702C746.993 225.185 763.855 220.927 783.273 220.927H799.625V287.357H775.608C756.872 287.357 741.712 293.148 730.129 304.731C718.547 315.973 712.755 331.984 712.755 352.765V502.999H636.105Z" fill="#4995bf"/>
<path d="M946.151 509.131C918.557 509.131 893.347 502.829 870.523 490.224C848.039 477.619 829.983 460.416 816.357 438.613C803.071 416.47 796.428 391.431 796.428 363.496C796.428 335.221 803.071 310.182 816.357 288.379C829.983 266.576 848.039 249.373 870.523 236.768C893.347 224.163 918.557 217.861 946.151 217.861C973.745 217.861 998.784 224.163 1021.27 236.768C1043.75 249.373 1061.64 266.576 1074.92 288.379C1088.55 310.182 1095.36 335.221 1095.36 363.496C1095.36 391.431 1088.55 416.47 1074.92 438.613C1061.64 460.416 1043.75 477.619 1021.27 490.224C998.784 502.829 973.745 509.131 946.151 509.131ZM946.151 440.146C960.118 440.146 972.212 436.91 982.432 430.437C992.992 423.964 1001.17 414.937 1006.96 403.354C1013.09 391.771 1016.16 378.485 1016.16 363.496C1016.16 348.507 1013.09 335.391 1006.96 324.149C1001.17 312.566 992.992 303.539 982.432 297.066C972.212 290.253 960.118 286.846 946.151 286.846C932.183 286.846 919.919 290.253 909.359 297.066C898.798 303.539 890.452 312.566 884.32 324.149C878.528 335.391 875.633 348.507 875.633 363.496C875.633 378.485 878.528 391.771 884.32 403.354C890.452 414.937 898.798 423.964 909.359 430.437C919.919 436.91 932.183 440.146 946.151 440.146Z" fill="#4995bf"/>
<path d="M1114.97 605.199V223.993H1186.51V277.137L1179.87 261.807C1189.06 247.84 1201.5 237.109 1217.17 229.614C1233.18 221.779 1251.41 217.861 1271.85 217.861C1298.42 217.861 1322.43 224.334 1343.9 237.279C1365.36 250.224 1382.39 267.769 1395 289.912C1407.6 311.715 1413.9 336.243 1413.9 363.496C1413.9 390.409 1407.6 414.937 1395 437.08C1382.73 459.223 1365.87 476.768 1344.41 489.713C1322.95 502.658 1298.59 509.131 1271.33 509.131C1252.26 509.131 1234.54 505.724 1218.19 498.911C1202.18 491.757 1189.23 481.367 1179.35 467.74L1191.62 451.899V605.199H1114.97ZM1262.14 440.146C1276.44 440.146 1289.05 436.91 1299.95 430.437C1310.85 423.964 1319.37 414.937 1325.5 403.354C1331.63 391.771 1334.7 378.485 1334.7 363.496C1334.7 348.507 1331.63 335.391 1325.5 324.149C1319.37 312.566 1310.85 303.539 1299.95 297.066C1289.05 290.253 1276.44 286.846 1262.14 286.846C1248.51 286.846 1236.25 290.082 1225.34 296.555C1214.78 303.028 1206.44 312.055 1200.31 323.638C1194.51 335.221 1191.62 348.507 1191.62 363.496C1191.62 378.485 1194.51 391.771 1200.31 403.354C1206.44 414.937 1214.78 423.964 1225.34 430.437C1236.25 436.91 1248.51 440.146 1262.14 440.146Z" fill="#4995bf"/>
<path d="M1542.6 509.131C1511.94 509.131 1485.2 501.977 1462.37 487.669C1439.89 473.02 1424.56 453.432 1416.38 428.904L1472.59 402.332C1479.75 417.321 1489.46 429.074 1501.72 437.591C1513.98 446.108 1527.61 450.366 1542.6 450.366C1553.5 450.366 1561.85 448.152 1567.64 443.723C1573.43 439.294 1576.33 433.162 1576.33 425.327C1576.33 421.239 1575.3 417.832 1573.26 415.107C1571.22 412.041 1568.15 409.316 1564.06 406.931C1559.97 404.546 1554.86 402.502 1548.73 400.799L1501.21 387.513C1478.38 381.04 1460.84 370.65 1448.58 356.342C1436.31 341.693 1430.18 324.49 1430.18 304.731C1430.18 287.357 1434.61 272.197 1443.47 259.252C1452.32 246.307 1464.76 236.257 1480.77 229.103C1496.78 221.608 1515.18 217.861 1535.96 217.861C1563.21 217.861 1587.06 224.334 1607.5 237.279C1628.28 249.884 1642.93 267.769 1651.44 290.934L1594.72 317.506C1590.63 305.923 1583.14 296.725 1572.24 289.912C1561.68 282.758 1549.58 279.181 1535.96 279.181C1526.08 279.181 1518.24 281.225 1512.45 285.313C1507 289.401 1504.27 295.022 1504.27 302.176C1504.27 305.923 1505.3 309.33 1507.34 312.396C1509.38 315.462 1512.62 318.187 1517.05 320.572C1521.82 322.957 1527.61 325.171 1534.42 327.215L1578.88 340.501C1602.05 347.314 1619.76 357.705 1632.02 371.672C1644.29 385.299 1650.42 402.162 1650.42 422.261C1650.42 439.635 1645.82 454.795 1636.62 467.74C1627.77 480.685 1615.33 490.905 1599.32 498.4C1583.31 505.554 1564.4 509.131 1542.6 509.131Z" fill="#4995bf"/>
<path d="M1805.07 506.065C1771.35 506.065 1745.12 497.037 1726.38 478.982C1707.98 460.586 1698.79 435.036 1698.79 402.332V290.423H1651.77V223.993H1654.33C1668.64 223.993 1679.54 220.416 1687.03 213.262C1694.87 206.108 1698.79 195.377 1698.79 181.069V160.629H1775.44V223.993H1840.84V290.423H1775.44V397.222C1775.44 406.761 1777.14 414.766 1780.55 421.239C1783.95 427.371 1789.23 431.97 1796.39 435.036C1803.54 438.102 1812.4 439.635 1822.96 439.635C1825.34 439.635 1828.07 439.465 1831.13 439.124C1834.2 438.783 1837.44 438.443 1840.84 438.102V502.999C1835.73 503.68 1829.94 504.362 1823.47 505.043C1817 505.724 1810.87 506.065 1805.07 506.065Z" fill="#4995bf"/>
<path d="M1994.6 509.131C1964.96 509.131 1939.24 502.658 1917.44 489.713C1895.64 476.427 1878.78 458.712 1866.85 436.569C1854.93 414.426 1848.97 389.898 1848.97 362.985C1848.97 335.05 1855.1 310.182 1867.36 288.379C1879.97 266.576 1896.83 249.373 1917.95 236.768C1939.07 224.163 1962.92 217.861 1989.49 217.861C2011.64 217.861 2031.22 221.438 2048.26 228.592C2065.29 235.405 2079.6 245.114 2091.18 257.719C2103.11 270.324 2112.13 284.972 2118.27 301.665C2124.4 318.017 2127.46 335.902 2127.46 355.32C2127.46 360.771 2127.12 366.221 2126.44 371.672C2126.1 376.782 2125.25 381.211 2123.89 384.958H1914.89V328.748H2080.45L2044.17 355.32C2047.58 340.671 2047.41 327.726 2043.66 316.484C2039.91 304.901 2033.27 295.874 2023.73 289.401C2014.53 282.588 2003.12 279.181 1989.49 279.181C1976.21 279.181 1964.79 282.417 1955.26 288.89C1945.72 295.363 1938.56 304.901 1933.79 317.506C1929.02 330.111 1927.15 345.441 1928.17 363.496C1926.81 379.167 1928.68 392.964 1933.79 404.887C1938.9 416.81 1946.74 426.179 1957.3 432.992C1967.86 439.465 1980.64 442.701 1995.62 442.701C2009.25 442.701 2020.83 439.976 2030.37 434.525C2040.25 429.074 2047.92 421.58 2053.37 412.041L2114.69 441.168C2109.24 454.795 2100.55 466.718 2088.63 476.938C2077.04 487.158 2063.25 495.164 2047.24 500.955C2031.22 506.406 2013.68 509.131 1994.6 509.131Z" fill="#4995bf"/>
<path d="M2147.05 502.999V223.993H2218.59V291.956L2210.92 280.714C2215.01 259.252 2224.89 243.411 2240.56 233.191C2256.23 222.971 2274.97 217.861 2296.77 217.861C2319.94 217.861 2340.21 223.823 2357.58 235.746C2375.3 247.329 2386.37 262.999 2390.8 282.758L2368.82 284.802C2378.02 261.977 2391.14 245.114 2408.17 234.213C2425.2 223.312 2445.13 217.861 2467.96 217.861C2488.06 217.861 2505.77 222.29 2521.1 231.147C2536.77 240.004 2549.04 252.439 2557.89 268.45C2566.75 284.121 2571.18 302.517 2571.18 323.638V502.999H2494.53V339.99C2494.53 329.089 2492.48 319.72 2488.4 311.885C2484.65 304.05 2479.2 297.918 2472.04 293.489C2464.89 289.06 2456.2 286.846 2445.98 286.846C2436.1 286.846 2427.42 289.06 2419.92 293.489C2412.77 297.918 2407.15 304.05 2403.06 311.885C2399.31 319.72 2397.44 329.089 2397.44 339.99V502.999H2320.79V339.99C2320.79 329.089 2318.74 319.72 2314.66 311.885C2310.91 304.05 2305.46 297.918 2298.3 293.489C2291.15 289.06 2282.46 286.846 2272.24 286.846C2262.36 286.846 2253.68 289.06 2246.18 293.489C2239.03 297.918 2233.41 304.05 2229.32 311.885C2225.57 319.72 2223.7 329.089 2223.7 339.99V502.999H2147.05Z" fill="#4995bf"/>
<path d="M587.29 474.297C586.986 478.343 586.608 482.623 586.18 485.655C585.455 491.486 584.55 497.269 583.473 502.999H480.68C487.684 483.332 491.501 462.153 491.501 440.082C491.501 336.529 407.554 252.582 304.001 252.582C200.447 252.582 116.501 336.529 116.501 440.082C116.501 462.153 120.317 483.332 127.321 502.999H7.42544C3.48696 486.017 1.10854 468.758 0.294582 451.46C-2.55814 388.562 15.2898 325.266 54.6491 272.878C95.0304 219.153 153.401 181.999 218.891 168.385C226.203 166.864 240.527 164.806 240.627 164.792C464.964 147.35 560.82 14.6985 587.29 0V474.297Z" fill="#4995bf"/>
</svg>
