<svg width="463" height="166" viewBox="0 0 463 166" fill="none" xmlns="http://www.w3.org/2000/svg">
<path d="M244.09 133.694C238.926 133.708 237.086 130.244 237.077 126.58C236.893 120.796 241.364 111.723 247.332 101.296C252.634 91.8337 258.609 83.5257 262.756 77.7324L260.916 74.6537L234.433 74.727C229.45 79.9457 221.488 90.9577 215.354 102.347C211.546 109.878 208.404 118.372 207.59 125.503C201.945 131.496 195.457 134.602 190.628 134.615C185.465 134.631 183.124 131.55 183.109 126.346C183.092 120.754 186.236 112.839 190.875 103.767C196.343 93.535 202.481 84.8403 207.792 77.8857L205.95 74.807C205.95 74.807 156.507 77.2017 153.62 77.0964C152.749 77.0604 152.483 76.555 152.509 76.0577C152.701 71.911 186.909 24.1978 187.771 5.97387C187.985 1.49655 185 0.19389 181.676 0.0232238C179.36 -0.0901093 176.817 0.223225 175.264 0.704557C143.145 10.6805 70.7122 11.9672 43.7882 15.8165C37.1949 16.7552 32.2723 19.2858 29.9803 21.4098C27.687 23.6992 14.7323 37.2925 12.6536 40.9604C10.4323 44.4671 11.7243 44.0164 11.511 45.3671C11.447 46.5538 11.2577 50.2858 16.6283 50.4444C16.6283 50.4444 95.4694 42.9644 117.229 43.7711C120.997 43.9124 121.453 46.4391 121.376 48.1084C121.284 49.9751 113.72 80.2977 102.792 81.2123C95.2321 81.127 69.4615 81.6657 63.7415 82.499C60.0789 83.0657 57.8655 82.827 56.3655 87.499C54.9709 91.8403 60.3469 91.363 67.7362 91.8377C80.3375 92.647 98.7761 91.4937 99.7854 91.5257C101.239 91.571 101.487 92.4217 101.455 93.0843C101.423 93.7523 101.101 94.407 101.101 94.407C84.5481 121.23 79.4068 141.259 25.5483 155.483C21.5136 156.527 11.443 157.304 7.20166 156.861C2.707 156.392 0.119026 155.157 0.00302583 157.52C-0.262307 162.749 16.9803 164.989 28.931 165.173C80.6948 166.072 127.872 118.763 141.261 92.9057C141.996 91.487 143.335 90.5163 144.923 90.339C150.163 89.7537 162.241 88.4537 169.544 87.671C167.033 91.179 164.56 94.983 162.38 98.8323C156.409 108.872 152.276 119.683 152.299 127.779C152.333 139.924 159.516 147.427 174.173 147.386C189.831 147.343 200.8 139.211 207.609 132.06L207.777 132.254C208.117 135.144 208.79 137.452 209.628 139.186C212.808 144.964 218.812 147.262 226.64 147.24C240.797 147.2 250.604 139.072 255.75 133.855L257.397 127.099C252.912 130.97 248.422 133.682 244.09 133.694Z" fill="#2C2E35"/>
<path d="M437.935 121.008C432.463 129.699 425.319 135.887 419.157 135.903C413.826 135.919 409.986 132.46 409.965 124.748C409.941 116.459 414.41 105.842 419.383 98.1163C425.355 88.655 433.165 82.0763 439.993 82.0577C445.49 82.0417 448.333 85.8897 448.351 92.447C448.375 101.504 443.577 112.316 437.935 121.008ZM462.018 96.0696C461.978 81.803 453.287 71.031 433.799 71.0857C419.977 71.123 407.83 76.1723 398.358 84.1017C386.725 93.5816 379.767 106.711 379.805 120.204C379.814 123.403 380.202 126.342 380.938 129.012C377.573 131.467 373.898 133.332 369.514 133.344C364.185 133.359 362.342 130.087 362.331 126.038C362.315 120.64 366.125 112.724 370.931 104.422C375.409 96.6976 383.039 85.687 386.022 79.8923C386.349 78.547 384.175 74.8857 382.677 74.8897C380.845 74.895 353.03 75.1657 351.697 75.1697C352.526 73.819 353.521 72.6604 354.518 71.499C359.497 64.7377 360.985 61.071 354.487 60.703C343.326 59.9631 339.836 62.2884 335.192 69.431C333.201 72.5244 332.04 74.455 330.88 76.579C327.413 82.2683 329.101 84.4363 334.564 84.6243C331.462 89.9896 327.922 96.0696 325.946 99.3416C321.634 106.294 316.326 113.828 311.013 120.014C305.7 125.811 299.218 131.612 293.221 131.63C288.394 131.643 285.721 129.143 285.709 124.514C285.681 114.107 293.969 99.431 303.75 83.9777L322.738 83.7337L328.21 74.659L309.554 74.5177C316.024 64.8604 321.333 57.1311 325.148 51.7257L324.308 49.4137L297.992 49.4871C293.176 54.3191 286.868 62.6284 280.565 71.899C272.905 72.6924 270.58 74.4324 269.418 76.3643C268.425 78.6817 269.265 81.3737 272.936 83.679C263.817 98.5496 257.364 113.606 257.401 126.907C257.441 141.174 266.617 147.319 278.442 147.284C291.436 147.25 301.58 141.051 309.218 133.899C317.529 126.355 324.329 116.89 331.13 106.46C334.301 101.643 340.555 91.2363 344.387 84.6377L352.39 84.6163C354.721 84.6097 354.558 85.7657 354.227 86.9243C351.574 91.1736 346.429 97.5496 342.452 104.5C337.312 113.19 333.173 122.071 333.194 129.976C333.23 142.891 342.402 146.918 353.562 146.887C366.554 146.85 377.191 138.719 382.007 133.503L382.246 132.612C386.471 142.135 396.079 147.344 410.026 147.306C427.182 147.258 440.653 139.315 450.114 127.722C457.418 118.832 462.049 107.062 462.018 96.0696Z" fill="#2C2E35"/>
</svg>
