<svg width="929" height="148" viewBox="0 0 929 148" fill="none" xmlns="http://www.w3.org/2000/svg">
<g clip-path="url(#clip0_1959_22)">
<path d="M163.8 87.84C163.8 87.52 163.8 87.2 163.8 86.88C163.8 86.56 163.8 86.24 163.8 85.92H177.56C177.56 86.1333 177.56 86.2933 177.56 86.4C177.56 86.5067 177.56 86.6667 177.56 86.88C177.56 89.9733 177.987 92.7467 178.84 95.2C179.8 97.5467 181.24 99.5733 183.16 101.28C185.08 102.987 187.587 104.267 190.68 105.12C193.773 105.973 197.56 106.4 202.04 106.4C205.667 106.4 208.813 106.187 211.48 105.76C214.147 105.333 216.333 104.64 218.04 103.68C219.853 102.72 221.187 101.493 222.04 100C223 98.4 223.48 96.5333 223.48 94.4C223.48 91.3067 222.573 88.8533 220.76 87.04C219.053 85.12 215.96 83.7333 211.48 82.88L186.2 78.4C182.36 77.76 179.16 76.7467 176.6 75.36C174.147 73.8667 172.173 72.16 170.68 70.24C169.293 68.32 168.28 66.24 167.64 64C167.107 61.76 166.84 59.4133 166.84 56.96C166.84 53.2267 167.693 49.92 169.4 47.04C171.107 44.16 173.453 41.76 176.44 39.84C179.427 37.8133 182.947 36.32 187 35.36C191.053 34.2933 195.48 33.76 200.28 33.76C206.36 33.76 211.693 34.5067 216.28 36C220.867 37.3867 224.707 39.36 227.8 41.92C230.893 44.48 233.24 47.5733 234.84 51.2C236.44 54.72 237.24 58.6133 237.24 62.88C237.24 63.0933 237.24 63.36 237.24 63.68C237.24 63.8933 237.24 64.1067 237.24 64.32H223.64C223.64 64.1067 223.64 64 223.64 64C223.64 63.8933 223.64 63.7333 223.64 63.52C223.64 57.76 221.667 53.3333 217.72 50.24C213.773 47.1467 207.96 45.6 200.28 45.6C196.76 45.6 193.72 45.8667 191.16 46.4C188.707 46.8267 186.627 47.52 184.92 48.48C183.32 49.3333 182.093 50.4533 181.24 51.84C180.493 53.12 180.12 54.6667 180.12 56.48C180.12 59.36 180.813 61.6533 182.2 63.36C183.693 65.0667 186.733 66.3467 191.32 67.2L215.8 71.52C220.173 72.2667 223.747 73.3867 226.52 74.88C229.293 76.2667 231.48 77.9733 233.08 80C234.68 81.92 235.747 84.1067 236.28 86.56C236.92 89.0133 237.24 91.5733 237.24 94.24C237.24 98.5067 236.333 102.187 234.52 105.28C232.813 108.267 230.413 110.72 227.32 112.64C224.227 114.56 220.493 115.947 216.12 116.8C211.747 117.76 206.947 118.24 201.72 118.24C194.893 118.24 189.08 117.44 184.28 115.84C179.48 114.24 175.533 112.107 172.44 109.44C169.453 106.667 167.267 103.467 165.88 99.84C164.493 96.1067 163.8 92.1067 163.8 87.84ZM249.813 88.32V36H263.573V84.32C263.573 88.2667 263.893 91.68 264.533 94.56C265.279 97.44 266.453 99.7867 268.053 101.6C269.653 103.413 271.733 104.8 274.293 105.76C276.959 106.613 280.213 107.04 284.052 107.04C287.573 107.04 290.773 106.347 293.653 104.96C296.533 103.573 298.986 101.653 301.013 99.2C303.146 96.7467 304.746 93.8133 305.813 90.4C306.986 86.9867 307.573 83.3067 307.573 79.36V36H321.333V116H308.693L307.893 101.92H305.973C303.413 107.68 299.839 111.84 295.253 114.4C290.666 116.96 285.333 118.24 279.253 118.24C274.453 118.24 270.239 117.493 266.613 116C262.986 114.613 259.893 112.64 257.333 110.08C254.879 107.413 253.013 104.267 251.733 100.64C250.453 96.9067 249.813 92.8 249.813 88.32ZM339.526 36H351.846L352.646 50.4H354.566C358.086 44.32 362.46 40.0533 367.686 37.6C373.02 35.04 378.673 33.76 384.646 33.76C389.98 33.76 394.94 34.72 399.526 36.64C404.113 38.4533 408.06 41.1733 411.366 44.8C414.673 48.4267 417.233 52.8533 419.046 58.08C420.966 63.2 421.926 69.12 421.926 75.84C421.926 82.7733 420.966 88.9067 419.046 94.24C417.126 99.4667 414.46 103.893 411.046 107.52C407.633 111.04 403.58 113.707 398.886 115.52C394.3 117.333 389.233 118.24 383.686 118.24C378.353 118.24 373.02 117.067 367.686 114.72C362.46 112.373 358.086 108.32 354.566 102.56H352.646L353.286 114.4V144.8H339.526V36ZM408.166 76.16C408.166 70.72 407.473 66.0267 406.086 62.08C404.806 58.1333 402.94 54.88 400.486 52.32C398.14 49.76 395.313 47.8933 392.006 46.72C388.7 45.5467 385.126 44.96 381.286 44.96C377.553 44.96 373.98 45.4933 370.566 46.56C367.153 47.6267 364.166 49.3867 361.606 51.84C359.046 54.2933 357.02 57.4933 355.526 61.44C354.033 65.3867 353.286 70.2933 353.286 76.16C353.286 81.92 354.033 86.7733 355.526 90.72C357.02 94.56 359.046 97.7067 361.606 100.16C364.166 102.613 367.153 104.373 370.566 105.44C373.98 106.507 377.553 107.04 381.286 107.04C385.126 107.04 388.7 106.453 392.006 105.28C395.313 104.107 398.14 102.293 400.486 99.84C402.94 97.28 404.806 94.08 406.086 90.24C407.473 86.2933 408.166 81.6 408.166 76.16ZM471.784 118.24C465.597 118.24 459.944 117.387 454.824 115.68C449.81 113.973 445.49 111.36 441.864 107.84C438.344 104.32 435.624 99.9467 433.704 94.72C431.784 89.3867 430.824 83.1467 430.824 76C430.824 69.1733 431.784 63.1467 433.704 57.92C435.73 52.6933 438.504 48.32 442.024 44.8C445.65 41.1733 450.024 38.4533 455.144 36.64C460.264 34.72 465.97 33.76 472.264 33.76C477.384 33.76 482.237 34.56 486.824 36.16C491.517 37.6533 495.624 40 499.144 43.2C502.664 46.2933 505.437 50.1867 507.464 54.88C509.49 59.4667 510.504 64.9067 510.504 71.2C510.504 72.6933 510.45 74.24 510.344 75.84C510.237 77.44 510.077 78.9333 509.864 80.32H444.264C444.264 84.6933 445.01 88.5333 446.504 91.84C447.997 95.04 449.97 97.76 452.424 100C454.984 102.133 457.864 103.733 461.064 104.8C464.37 105.867 467.837 106.4 471.464 106.4C475.624 106.4 479.197 105.92 482.184 104.96C485.17 104 487.624 102.72 489.544 101.12C491.464 99.52 492.904 97.76 493.864 95.84C494.93 93.8133 495.677 91.84 496.104 89.92H509.544C508.584 95.04 506.984 99.4133 504.744 103.04C502.61 106.56 499.89 109.44 496.584 111.68C493.277 113.92 489.49 115.573 485.224 116.64C481.064 117.707 476.584 118.24 471.784 118.24ZM444.264 69.28H497.544C497.544 65.9733 497.01 62.88 495.944 60C494.877 57.12 493.277 54.6133 491.144 52.48C489.01 50.3467 486.344 48.6933 483.144 47.52C479.944 46.24 476.21 45.6 471.944 45.6C468.21 45.6 464.69 46.08 461.384 47.04C458.077 47.8933 455.197 49.28 452.744 51.2C450.29 53.12 448.317 55.5733 446.824 58.56C445.33 61.5467 444.477 65.12 444.264 69.28ZM517.695 104.16H532.255V47.84H517.695V36H544.575L545.855 49.44H547.775C548.522 46.7733 549.588 44.48 550.975 42.56C552.468 40.64 554.122 39.0933 555.935 37.92C557.855 36.7467 559.828 35.8933 561.855 35.36C563.988 34.72 566.122 34.4 568.255 34.4C574.762 34.4 579.828 36.16 583.455 39.68C587.082 43.2 588.895 48.9067 588.895 56.8C588.895 57.9733 588.842 59.2 588.735 60.48C588.735 61.6533 588.628 62.9333 588.415 64.32H575.615C575.722 63.4667 575.775 62.6667 575.775 61.92C575.882 61.0667 575.935 60.2667 575.935 59.52C575.935 54.1867 574.868 50.5067 572.735 48.48C570.708 46.4533 567.882 45.44 564.255 45.44C561.695 45.44 559.295 46.08 557.055 47.36C554.815 48.5333 552.842 50.4 551.135 52.96C549.535 55.52 548.255 58.8267 547.295 62.88C546.442 66.8267 546.015 71.5733 546.015 77.12V104.16H586.175V116H517.695V104.16ZM597.55 87.84C597.55 87.52 597.55 87.2 597.55 86.88C597.55 86.56 597.55 86.24 597.55 85.92H611.31C611.31 86.1333 611.31 86.2933 611.31 86.4C611.31 86.5067 611.31 86.6667 611.31 86.88C611.31 89.9733 611.737 92.7467 612.59 95.2C613.55 97.5467 614.99 99.5733 616.91 101.28C618.83 102.987 621.337 104.267 624.43 105.12C627.523 105.973 631.31 106.4 635.79 106.4C639.417 106.4 642.563 106.187 645.23 105.76C647.897 105.333 650.083 104.64 651.79 103.68C653.603 102.72 654.937 101.493 655.79 100C656.75 98.4 657.23 96.5333 657.23 94.4C657.23 91.3067 656.323 88.8533 654.51 87.04C652.803 85.12 649.71 83.7333 645.23 82.88L619.95 78.4C616.11 77.76 612.91 76.7467 610.35 75.36C607.897 73.8667 605.923 72.16 604.43 70.24C603.043 68.32 602.03 66.24 601.39 64C600.857 61.76 600.59 59.4133 600.59 56.96C600.59 53.2267 601.443 49.92 603.15 47.04C604.857 44.16 607.203 41.76 610.19 39.84C613.177 37.8133 616.697 36.32 620.75 35.36C624.803 34.2933 629.23 33.76 634.03 33.76C640.11 33.76 645.443 34.5067 650.03 36C654.617 37.3867 658.457 39.36 661.55 41.92C664.643 44.48 666.99 47.5733 668.59 51.2C670.19 54.72 670.99 58.6133 670.99 62.88C670.99 63.0933 670.99 63.36 670.99 63.68C670.99 63.8933 670.99 64.1067 670.99 64.32H657.39C657.39 64.1067 657.39 64 657.39 64C657.39 63.8933 657.39 63.7333 657.39 63.52C657.39 57.76 655.417 53.3333 651.47 50.24C647.523 47.1467 641.71 45.6 634.03 45.6C630.51 45.6 627.47 45.8667 624.91 46.4C622.457 46.8267 620.377 47.52 618.67 48.48C617.07 49.3333 615.843 50.4533 614.99 51.84C614.243 53.12 613.87 54.6667 613.87 56.48C613.87 59.36 614.563 61.6533 615.95 63.36C617.443 65.0667 620.483 66.3467 625.07 67.2L649.55 71.52C653.923 72.2667 657.497 73.3867 660.27 74.88C663.043 76.2667 665.23 77.9733 666.83 80C668.43 81.92 669.497 84.1067 670.03 86.56C670.67 89.0133 670.99 91.5733 670.99 94.24C670.99 98.5067 670.083 102.187 668.27 105.28C666.563 108.267 664.163 110.72 661.07 112.64C657.977 114.56 654.243 115.947 649.87 116.8C645.497 117.76 640.697 118.24 635.47 118.24C628.643 118.24 622.83 117.44 618.03 115.84C613.23 114.24 609.283 112.107 606.19 109.44C603.203 106.667 601.017 103.467 599.63 99.84C598.243 96.1067 597.55 92.1067 597.55 87.84ZM680.043 75.84C680.043 69.2267 681.109 63.36 683.243 58.24C685.376 53.0133 688.309 48.5867 692.043 44.96C695.776 41.3333 700.203 38.56 705.323 36.64C710.549 34.72 716.203 33.76 722.283 33.76C728.363 33.76 733.963 34.72 739.083 36.64C744.309 38.56 748.789 41.3333 752.523 44.96C756.256 48.5867 759.189 53.0133 761.323 58.24C763.456 63.36 764.523 69.2267 764.523 75.84C764.523 82.7733 763.456 88.9067 761.323 94.24C759.189 99.4667 756.256 103.893 752.523 107.52C748.789 111.04 744.309 113.707 739.083 115.52C733.963 117.333 728.363 118.24 722.283 118.24C716.203 118.24 710.549 117.333 705.323 115.52C700.203 113.707 695.776 111.04 692.043 107.52C688.309 103.893 685.376 99.4667 683.243 94.24C681.109 88.9067 680.043 82.7733 680.043 75.84ZM750.763 76.16C750.763 70.8267 749.963 66.24 748.363 62.4C746.869 58.4533 744.789 55.2533 742.123 52.8C739.563 50.3467 736.576 48.5333 733.163 47.36C729.749 46.1867 726.123 45.6 722.283 45.6C718.443 45.6 714.816 46.1867 711.403 47.36C707.989 48.5333 704.949 50.3467 702.283 52.8C699.723 55.2533 697.643 58.4533 696.043 62.4C694.549 66.24 693.803 70.8267 693.803 76.16C693.803 81.3867 694.549 85.92 696.043 89.76C697.643 93.6 699.723 96.7467 702.283 99.2C704.949 101.653 707.989 103.467 711.403 104.64C714.816 105.813 718.443 106.4 722.283 106.4C726.123 106.4 729.749 105.813 733.163 104.64C736.576 103.467 739.563 101.653 742.123 99.2C744.789 96.7467 746.869 93.6 748.363 89.76C749.963 85.92 750.763 81.3867 750.763 76.16ZM770.675 104.16H797.715V15.84H770.675V3.99999H811.475V104.16H834.675V116H770.675V104.16ZM839.886 75.84C839.886 69.2267 840.953 63.36 843.086 58.24C845.22 53.0133 848.153 48.5867 851.886 44.96C855.62 41.3333 860.046 38.56 865.166 36.64C870.393 34.72 876.046 33.76 882.126 33.76C888.206 33.76 893.806 34.72 898.926 36.64C904.153 38.56 908.633 41.3333 912.366 44.96C916.1 48.5867 919.033 53.0133 921.166 58.24C923.3 63.36 924.366 69.2267 924.366 75.84C924.366 82.7733 923.3 88.9067 921.166 94.24C919.033 99.4667 916.1 103.893 912.366 107.52C908.633 111.04 904.153 113.707 898.926 115.52C893.806 117.333 888.206 118.24 882.126 118.24C876.046 118.24 870.393 117.333 865.166 115.52C860.046 113.707 855.62 111.04 851.886 107.52C848.153 103.893 845.22 99.4667 843.086 94.24C840.953 88.9067 839.886 82.7733 839.886 75.84ZM910.606 76.16C910.606 70.8267 909.806 66.24 908.206 62.4C906.713 58.4533 904.633 55.2533 901.966 52.8C899.406 50.3467 896.42 48.5333 893.006 47.36C889.593 46.1867 885.966 45.6 882.126 45.6C878.286 45.6 874.66 46.1867 871.246 47.36C867.833 48.5333 864.793 50.3467 862.126 52.8C859.566 55.2533 857.486 58.4533 855.886 62.4C854.393 66.24 853.646 70.8267 853.646 76.16C853.646 81.3867 854.393 85.92 855.886 89.76C857.486 93.6 859.566 96.7467 862.126 99.2C864.793 101.653 867.833 103.467 871.246 104.64C874.66 105.813 878.286 106.4 882.126 106.4C885.966 106.4 889.593 105.813 893.006 104.64C896.42 103.467 899.406 101.653 901.966 99.2C904.633 96.7467 906.713 93.6 908.206 89.76C909.806 85.92 910.606 81.3867 910.606 76.16Z" fill="#4995bf"/>
<path d="M3 33.6546C3 32.0688 4.04615 30.6568 5.60671 30.1362L65.9503 10.0081L65.9571 10.006L65.9639 10.0042C65.9724 10.0022 65.981 10.0009 65.9898 10.0003L66.0011 10C66.0176 10.0002 66.034 10.0028 66.0497 10.0081L87.8247 17.4602C88.2331 17.6 88.2772 18.1352 87.8897 18.3216C85.2423 19.5951 77.981 23.089 72.6083 25.684C72.0619 25.9479 72.3824 26.6615 72.9594 26.466L93.6584 19.4517C93.762 19.4166 93.8696 19.414 93.9738 19.4473C101.429 21.832 119.021 27.8734 126.393 30.1362C127.722 30.5793 128.677 31.6681 128.932 32.9602C128.935 32.9758 128.949 32.9871 128.966 32.9871C128.985 32.9871 129 33.0018 129 33.0199V85.8524C129 96.4708 123.252 106.326 113.822 111.877L66.0791 139.979C66.0305 140.007 65.9694 140.007 65.9209 139.979L8.51678 106.19C5.08918 104.173 3 100.591 3 96.7312C3 91.8831 5.9925 87.6628 10.875 84.6388L113.822 37.7662C83.3684 47.7907 55.8947 57.1628 25.5031 67.5712C14.3477 70.9321 3 62.9343 3 51.7111V33.6546Z" fill="#4995bf"/>
</g>
<defs>
<clipPath id="clip0_1959_22">
<rect width="929" height="148" fill="white"/>
</clipPath>
</defs>
</svg>
