<svg width="23" height="9" viewBox="0 0 23 9" fill="none" xmlns="http://www.w3.org/2000/svg">
<path d="M3.28125 7.33594C5.01953 7.33594 5.88867 6.3125 5.88867 4.26562C5.88867 2.52344 5.01953 1.65234 3.28125 1.65234H1.55273V7.33594H3.28125ZM0 8.68359V0.304688H3.28125C6.05469 0.304688 7.44141 1.625 7.44141 4.26562C7.44141 7.21094 6.05469 8.68359 3.28125 8.68359H0Z" fill="#4995bf"/>
<path d="M8.61914 8.68359V2.53125H9.82031L10.0137 3.31641C10.5527 2.79297 11.123 2.53125 11.7246 2.53125V3.78516C11.1465 3.78516 10.6289 4.02539 10.1719 4.50586V8.68359H8.61914Z" fill="#4995bf"/>
<path d="M14.1562 0.304688V1.53516H12.6035V0.304688H14.1562ZM14.1562 2.53125V8.68359H12.6035V2.53125H14.1562Z" fill="#4995bf"/>
<path d="M15.627 8.68359V2.53125C15.627 0.84375 16.5488 0 18.3926 0C18.8965 0 19.3535 0.078125 19.7637 0.234375V1.46484C19.377 1.30859 18.957 1.23047 18.5039 1.23047C17.6211 1.23047 17.1797 1.66406 17.1797 2.53125H19.0254V3.76172H17.1797V8.68359H15.627Z" fill="#4995bf"/>
<path d="M19.8867 1.53516H21.0352L21.2695 2.53125H22.8164V3.76172H21.4395V6.5918C21.4395 7.16602 21.6875 7.45312 22.1836 7.45312H22.8164V8.68359H21.4336C20.4023 8.68359 19.8867 8.13086 19.8867 7.02539V1.53516Z" fill="#4995bf"/>
</svg>
