<svg width="979" height="165" viewBox="0 0 979 165" fill="none" xmlns="http://www.w3.org/2000/svg">
<path d="M163.686 90.4821L118.351 69.2482L139.531 23.6501C134.723 18.8768 129.343 14.7223 123.514 11.2822L109.655 4.79799C91.8835 -1.57321 72.4691 -1.59997 54.6799 4.72219C36.8908 11.0444 21.8133 23.3294 11.9855 39.5094L4.31379 56.066C-1.67914 73.8882 -1.42092 93.2334 5.04538 110.888C11.5117 128.542 23.7969 143.443 39.8601 153.115L55.2693 160.343C73.4626 166.64 93.2808 166.314 111.259 159.421C129.237 152.527 144.23 139.506 153.618 122.633L158.736 111.604C161.309 104.814 162.973 97.7117 163.686 90.4821ZM95.4975 118.872L46.1738 95.7703L69.1837 46.2328L118.487 69.3347L95.4975 118.872Z" fill="url(#paint0_linear_257_159)"/>
<path d="M163.686 90.4821L118.351 69.2482L139.531 23.6501C134.723 18.8768 129.343 14.7223 123.514 11.2822L109.655 4.79799C91.8835 -1.57321 72.4691 -1.59997 54.6799 4.72219C36.8908 11.0444 21.8133 23.3294 11.9855 39.5094L4.31379 56.066C-1.67914 73.8882 -1.42092 93.2334 5.04538 110.888C11.5117 128.542 23.7969 143.443 39.8601 153.115L55.2693 160.343C73.4626 166.64 93.2808 166.314 111.259 159.421C129.237 152.527 144.23 139.506 153.618 122.633L158.736 111.604C161.309 104.814 162.973 97.7117 163.686 90.4821ZM95.4975 118.872L46.1738 95.7703L69.1837 46.2328L118.487 69.3347L95.4975 118.872Z" fill="url(#paint1_linear_257_159)"/>
<path d="M163.686 90.4821L118.351 69.2482L139.531 23.6501C134.723 18.8768 129.343 14.7223 123.514 11.2822L109.655 4.79799C91.8835 -1.57321 72.4691 -1.59997 54.6799 4.72219C36.8908 11.0444 21.8133 23.3294 11.9855 39.5094L4.31379 56.066C-1.67914 73.8882 -1.42092 93.2334 5.04538 110.888C11.5117 128.542 23.7969 143.443 39.8601 153.115L55.2693 160.343C73.4626 166.64 93.2808 166.314 111.259 159.421C129.237 152.527 144.23 139.506 153.618 122.633L158.736 111.604C161.309 104.814 162.973 97.7117 163.686 90.4821ZM95.4975 118.872L46.1738 95.7703L69.1837 46.2328L118.487 69.3347L95.4975 118.872Z" fill="url(#paint2_linear_257_159)"/>
<path d="M163.686 90.4821L118.351 69.2482L139.531 23.6501C134.723 18.8768 129.343 14.7223 123.514 11.2822L109.655 4.79799C91.8835 -1.57321 72.4691 -1.59997 54.6799 4.72219C36.8908 11.0444 21.8133 23.3294 11.9855 39.5094L4.31379 56.066C-1.67914 73.8882 -1.42092 93.2334 5.04538 110.888C11.5117 128.542 23.7969 143.443 39.8601 153.115L55.2693 160.343C73.4626 166.64 93.2808 166.314 111.259 159.421C129.237 152.527 144.23 139.506 153.618 122.633L158.736 111.604C161.309 104.814 162.973 97.7117 163.686 90.4821ZM95.4975 118.872L46.1738 95.7703L69.1837 46.2328L118.487 69.3347L95.4975 118.872Z" fill="url(#paint3_linear_257_159)"/>
<path d="M290.243 124.56C290.237 128.717 289.005 132.778 286.705 136.219C284.19 140.047 280.899 143.287 277.051 145.724C272.567 148.594 267.674 150.749 262.545 152.113C256.661 153.721 250.59 154.511 244.496 154.463C242.486 154.454 240.478 154.34 238.479 154.12C236.4 153.888 234.131 153.614 231.674 153.281L236.4 142.22C237.975 142.434 239.415 142.612 240.707 142.703C241.999 142.795 242.858 142.881 243.205 142.881C249.696 143.276 256.132 141.475 261.505 137.762C263.533 136.327 265.188 134.415 266.327 132.189C267.467 129.964 268.058 127.492 268.049 124.985V118.45C264.315 119.702 260.505 120.709 256.644 121.467C246.903 123.387 236.853 122.954 227.308 120.203C222.208 118.763 217.353 116.551 212.905 113.641C209.025 111.119 205.682 107.835 203.075 103.981C200.73 100.572 199.456 96.5238 199.421 92.3676V66.6545C199.422 62.493 200.7 58.4349 203.075 55.0414C205.705 51.2812 209.037 48.0812 212.883 45.6231C217.343 42.7782 222.197 40.6249 227.285 39.2347C232.954 37.6432 238.813 36.8539 244.694 36.8893C250.79 36.8395 256.864 37.627 262.752 39.2302C267.883 40.6005 272.779 42.7546 277.271 45.6185C281.11 48.0403 284.414 51.2406 286.975 55.0185C289.265 58.4413 290.488 62.4823 290.486 66.618L290.243 124.56ZM268.049 66.7777C268.115 64.3183 267.656 61.8734 266.705 59.6101C265.753 57.3468 264.331 55.3184 262.536 53.6633C257.799 49.8147 251.794 47.9414 245.743 48.4249C239.413 48.0033 233.138 49.8581 228.023 53.6633C226.067 55.2186 224.491 57.2117 223.42 59.4867C222.348 61.7617 221.811 64.2571 221.848 66.7777V92.3814C221.828 94.8904 222.348 97.3738 223.37 99.659C224.392 101.944 225.892 103.976 227.767 105.614C232.818 109.162 238.817 111.063 244.962 111.063C251.107 111.063 257.106 109.162 262.158 105.614C264.025 103.971 265.518 101.938 266.535 99.6531C267.552 97.3686 268.069 94.8877 268.049 92.3814V66.7777Z" fill="black"/>
<path d="M302.216 59.4483C303.028 55.4076 305.035 51.7188 307.966 48.8802C311.092 45.9099 314.735 43.563 318.706 41.9605C322.952 40.1926 327.378 38.9149 331.902 38.1513C336.09 37.4016 340.333 37.0097 344.585 36.9797C355.848 36.3382 367.052 39.0399 376.844 44.7587C380.424 46.9034 383.385 49.9774 385.426 53.6686C387.468 57.3597 388.516 61.5367 388.465 65.7754V97.7737C388.427 101.482 387.083 105.053 384.677 107.832C381.821 111.193 378.354 113.956 374.469 115.969C369.748 118.444 364.726 120.267 359.536 121.391C353.743 122.708 347.825 123.361 341.89 123.339C335.939 123.383 330.006 122.671 324.226 121.221C319.277 120.029 314.52 118.116 310.103 115.542C306.485 113.46 303.32 110.646 300.804 107.271C298.635 104.407 297.441 100.898 297.402 97.2774C297.426 93.4627 298.51 89.7334 300.53 86.5241C302.549 83.3148 305.42 80.7577 308.808 79.1509C318.407 74.1021 328.829 70.8851 339.559 69.658C341.659 69.318 344.194 68.8953 347.163 68.3899C350.042 67.8959 352.886 67.2144 355.68 66.3498C358.165 65.5947 360.544 64.5135 362.757 63.1333C363.615 62.6939 364.344 62.0324 364.873 61.2148C365.402 60.3972 365.712 59.4523 365.772 58.4742C365.772 55.0649 363.5 52.5928 358.973 51.0076C354.253 49.3914 349.303 48.5871 344.324 48.6275C342.169 48.6569 340.022 48.9125 337.917 49.3902C335.578 49.9102 333.3 50.6803 331.119 51.6876C329.055 52.6322 327.157 53.9159 325.499 55.4876C323.989 56.9007 322.974 58.7813 322.611 60.8405L302.216 59.4483ZM366.015 76.4492C362.323 77.7502 358.557 78.8243 354.74 79.6655C350.723 80.5661 346.613 81.3579 342.407 82.041C336.821 82.8708 331.439 84.7712 326.543 87.6421C324.695 88.4615 323.099 89.7751 321.921 91.4443C320.744 93.1135 320.029 95.0764 319.853 97.1259C319.882 99.0346 320.47 100.891 321.54 102.456C322.756 104.305 324.319 105.89 326.138 107.12C328.271 108.589 330.615 109.709 333.085 110.442C335.939 111.29 338.899 111.711 341.872 111.691C345.053 111.706 348.224 111.339 351.32 110.598C354.024 109.97 356.633 108.973 359.077 107.634C361.071 106.556 362.813 105.049 364.183 103.219C365.36 101.666 366.002 99.7601 366.01 97.7967L366.015 76.4492Z" fill="black"/>
<path d="M397.689 122.188V9.22177H420.743V122.188H397.689Z" fill="black"/>
<path d="M431.118 122.188V9.22177H454.172V122.188H431.118Z" fill="black"/>
<path d="M553.037 94.456C552.504 98.5554 550.978 102.452 548.597 105.789C546.008 109.428 542.788 112.546 539.098 114.987C534.84 117.778 530.179 119.86 525.288 121.155C519.715 122.647 513.975 123.382 508.216 123.339C502.271 123.384 496.349 122.582 490.62 120.957C485.59 119.582 480.801 117.41 476.424 114.518C472.663 112.038 469.425 108.809 466.903 105.021C464.612 101.575 463.389 97.5002 463.394 93.3292V67.2284C463.41 63.0836 464.632 59.0382 466.903 55.6106C469.417 51.7718 472.655 48.488 476.424 45.9522C480.837 42.99 485.675 40.7582 490.763 39.3385C502.407 36.07 514.692 36.07 526.336 39.3385C531.375 40.7727 536.166 43.0041 540.536 45.9522C544.285 48.4644 547.479 51.7544 549.914 55.6106C552.114 59.0624 553.292 63.0945 553.306 67.2192V87.5434H485.467V93.3339C485.382 95.819 485.83 98.2927 486.777 100.581C487.725 102.87 489.15 104.917 490.951 106.58C495.889 110.4 502.027 112.215 508.189 111.676C514.072 112.047 519.908 110.389 524.768 106.966C526.679 105.46 528.277 103.577 529.469 101.428C530.661 99.2787 531.422 96.9068 531.709 94.4515L553.037 94.456ZM508.48 48.4634C502.241 47.9307 496.036 49.829 491.099 53.7802C489.263 55.4992 487.81 57.6053 486.84 59.9542C485.87 62.3031 485.406 64.8394 485.48 67.3894V75.3645H530.96V67.394C531.036 64.8435 530.574 62.3064 529.604 59.9566C528.635 57.6067 527.183 55.4998 525.346 53.7802C520.583 49.8791 514.556 47.982 508.48 48.4634Z" fill="black"/>
<path d="M618.543 49.2063C616.054 48.8712 613.546 48.6994 611.035 48.6919C604.913 48.4891 598.894 50.3001 593.907 53.8453C591.707 55.3705 589.918 57.4138 588.701 59.7935C587.484 62.1732 586.875 64.8158 586.929 67.4864V122.188H563.681V67.3486C563.672 63.0814 564.975 58.9139 567.414 55.4069C570.123 51.5488 573.578 48.2694 577.577 45.7616C582.172 42.867 587.174 40.6705 592.419 39.2442C598.219 37.6482 604.211 36.8553 610.228 36.8881C614.73 36.9813 619.214 37.4887 623.622 38.4037L618.543 49.2063Z" fill="black"/>
<path d="M622.747 59.4482C623.555 55.4051 625.584 51.7135 628.556 48.8801C631.719 45.9088 635.406 43.5617 639.426 41.9603C643.731 40.193 648.217 38.9154 652.802 38.1511C657.039 37.4008 661.331 37.0089 665.632 36.9795C677.041 36.3388 688.39 39.0404 698.311 44.7585C701.934 46.9056 704.931 49.9802 706.996 53.671C709.062 57.3617 710.124 61.5374 710.075 65.7753V97.7737C710.035 101.484 708.67 105.055 706.23 107.832C703.344 111.198 699.834 113.962 695.897 115.969C691.12 118.441 686.04 120.265 680.789 121.391C674.917 122.706 668.918 123.36 662.903 123.339C656.878 123.382 650.872 122.671 645.021 121.221C640.012 120.029 635.199 118.116 630.729 115.542C627.058 113.464 623.849 110.649 621.298 107.271C619.108 104.404 617.901 100.897 617.859 97.2774C617.881 93.4642 618.977 89.7359 621.02 86.5268C623.062 83.3176 625.966 80.7597 629.394 79.1508C639.123 74.1023 649.683 70.8854 660.557 69.6579C662.689 69.3179 665.236 68.8998 668.242 68.3898C671.167 67.893 674.058 67.2116 676.899 66.3497C679.408 65.5903 681.81 64.5093 684.047 63.1332C684.916 62.695 685.655 62.0337 686.19 61.2158C686.725 60.3979 687.037 59.4523 687.095 58.4741C687.095 55.0647 684.817 52.5927 680.211 51.0075C675.432 49.3923 670.421 48.588 665.381 48.6273C663.2 48.657 661.028 48.9126 658.898 49.3901C656.529 49.908 654.222 50.6781 652.014 51.6875C649.925 52.6362 648.002 53.9194 646.319 55.4875C644.792 56.9021 643.766 58.7822 643.399 60.8404L622.747 59.4482ZM687.336 76.4491C683.599 77.7543 679.786 78.8284 675.919 79.6655C671.846 80.566 667.685 81.3579 663.436 82.041C657.776 82.8686 652.322 84.769 647.363 87.642C645.493 88.4625 643.877 89.7765 642.685 91.4456C641.494 93.1147 640.771 95.077 640.593 97.1258C640.621 99.0362 641.22 100.893 642.31 102.456C643.541 104.304 645.122 105.889 646.962 107.12C649.125 108.591 651.503 109.712 654.01 110.442C656.895 111.292 659.888 111.713 662.894 111.691C666.115 111.708 669.326 111.341 672.461 110.598C675.201 109.969 677.844 108.972 680.32 107.634C682.337 106.555 684.1 105.048 685.487 103.219C686.684 101.669 687.336 99.7613 687.341 97.7967L687.336 76.4491Z" fill="black"/>
<path d="M786.609 122.188V67.6571C786.678 65.1534 786.248 62.6615 785.344 60.3315C784.441 58.0015 783.084 55.8818 781.354 54.1001C779.005 52.0907 776.287 50.5764 773.358 49.645C770.429 48.7136 767.347 48.3837 764.292 48.6745C757.889 48.192 751.535 50.1231 746.44 54.1001C744.507 55.7593 742.961 57.8363 741.915 60.1798C740.869 62.5233 740.35 65.0746 740.395 67.6479V122.188H718.146V67.5193C718.167 63.2887 719.442 59.1629 721.803 55.6805C724.437 51.7736 727.834 48.46 731.78 45.9457C736.33 43.021 741.279 40.795 746.467 39.3394C752.271 37.6731 758.276 36.8488 764.306 36.8908C770.663 36.8194 776.991 37.7889 783.047 39.762C788.468 41.5422 793.561 44.2264 798.117 47.7052C802.834 44.1863 808.115 41.5282 813.725 39.8494C825.796 36.0859 838.672 35.9089 850.838 39.3394C855.954 40.7608 860.82 42.99 865.258 45.9457C869.073 48.4798 872.327 51.7953 874.812 55.6805C877.12 59.1834 878.359 63.3021 878.374 67.5193V122.188H855.849V67.6571C855.895 65.1337 855.416 62.629 854.444 60.3069C853.473 57.9849 852.03 55.8979 850.21 54.1828C845.398 50.1438 839.231 48.167 833.013 48.6699C826.651 48.1717 820.335 50.1064 815.301 54.0955C813.395 55.771 811.875 57.8541 810.851 60.1959C809.828 62.5378 809.324 65.0807 809.377 67.6433V122.188H786.609Z" fill="black"/>
<path d="M892.424 59.4573C893.228 55.4126 895.239 51.7211 898.179 48.8891C901.29 45.9163 904.919 43.566 908.879 41.9601C913.129 40.1929 917.558 38.9153 922.085 38.151C926.271 37.4026 930.511 37.0107 934.761 36.9793C946.032 36.3394 957.243 39.0409 967.046 44.7584C970.621 46.9078 973.578 49.9831 975.617 53.6733C977.657 57.3636 978.706 61.5382 978.659 65.7752V97.7735C978.617 101.483 977.269 105.054 974.861 107.832C972.014 111.206 968.541 113.972 964.643 115.969C959.936 118.444 954.927 120.267 949.749 121.391C943.949 122.706 938.024 123.36 932.083 123.339C926.127 123.384 920.189 122.672 914.404 121.221C909.457 120.024 904.703 118.111 900.285 115.542C896.67 113.461 893.511 110.646 891.002 107.271C888.83 104.408 887.634 100.899 887.596 97.2773C887.619 93.4667 888.7 89.7409 890.713 86.5325C892.727 83.324 895.59 80.7644 898.971 79.1507C908.584 74.101 919.018 70.884 929.762 69.6578C931.849 69.3178 934.387 68.8996 937.357 68.3896C940.235 67.8941 943.08 67.2127 945.875 66.3495C948.355 65.6 950.728 64.5184 952.93 63.1331C953.792 62.6979 954.526 62.0377 955.057 61.2194C955.588 60.4011 955.897 59.4539 955.954 58.4739C955.954 55.0646 953.677 52.5926 949.141 51.0073C944.425 49.3907 939.479 48.5863 934.504 48.6272C932.348 48.6568 930.201 48.9124 928.097 49.3899C925.759 49.9099 923.482 50.68 921.302 51.6874C919.239 52.6338 917.341 53.9172 915.682 55.4873C914.171 56.8977 913.162 58.7805 912.812 60.8403L892.424 59.4573ZM956.237 76.4581C952.542 77.7591 948.774 78.8331 944.952 79.6745C940.921 80.5751 936.803 81.3669 932.601 82.05C927.01 82.8825 921.623 84.7827 916.722 87.6511C914.877 88.474 913.284 89.789 912.109 91.4577C910.934 93.1265 910.221 95.0875 910.044 97.1349C910.082 99.0457 910.677 100.902 911.754 102.465C912.969 104.312 914.529 105.897 916.344 107.129C918.476 108.605 920.824 109.726 923.3 110.451C926.157 111.302 929.121 111.723 932.097 111.7C935.278 111.716 938.449 111.349 941.546 110.607C944.246 109.985 946.85 108.988 949.285 107.643C951.286 106.572 953.031 105.065 954.397 103.228C955.578 101.675 956.229 99.7712 956.251 97.8057L956.237 76.4581Z" fill="black"/>
<defs>
<linearGradient id="paint0_linear_257_159" x1="44.8665" y1="-1.50734" x2="126.552" y2="191.641" gradientUnits="userSpaceOnUse">
<stop stop-color="#FF3300"/>
<stop offset="1" stop-color="#1D00CD" stop-opacity="0"/>
</linearGradient>
<linearGradient id="paint1_linear_257_159" x1="44.8665" y1="-1.50734" x2="126.552" y2="191.641" gradientUnits="userSpaceOnUse">
<stop stop-color="#FF3300"/>
<stop offset="1" stop-color="#1D00CD" stop-opacity="0"/>
</linearGradient>
<linearGradient id="paint2_linear_257_159" x1="44.8665" y1="-1.50734" x2="126.552" y2="191.641" gradientUnits="userSpaceOnUse">
<stop stop-color="#FF3300"/>
<stop offset="1" stop-color="#1D00CD" stop-opacity="0"/>
</linearGradient>
<linearGradient id="paint3_linear_257_159" x1="44.8665" y1="-1.50734" x2="126.552" y2="191.641" gradientUnits="userSpaceOnUse">
<stop stop-color="#FF3300"/>
<stop offset="1" stop-color="#1D00CD" stop-opacity="0"/>
</linearGradient>
</defs>
</svg>
