<svg width="214" height="33" viewBox="0 0 214 33" fill="none" xmlns="http://www.w3.org/2000/svg">
<path d="M165.303 7.37207C167.507 7.37207 169.458 7.82824 171.155 8.74023C172.878 9.65218 174.22 10.9062 175.183 12.502C176.171 14.0726 176.665 15.8845 176.665 17.9365C176.665 19.9884 176.171 21.8123 175.183 23.4082C174.538 24.4602 173.722 25.3636 172.736 26.1201H172.748L165.37 32.1201L158.277 26.4453C157.084 25.6271 156.106 24.6156 155.347 23.4082C154.359 21.8123 153.865 19.9884 153.865 17.9365C153.865 15.8845 154.359 14.0726 155.347 12.502C156.335 10.906 157.69 9.65222 159.413 8.74023C161.136 7.8283 163.099 7.37209 165.303 7.37207ZM54.5596 19.6846C54.5596 20.2417 54.6489 20.71 54.8262 21.0898C55.0288 21.4698 55.3074 21.7612 55.6621 21.9639C56.0168 22.1665 56.4475 22.2686 56.9541 22.2686C57.3339 22.2685 57.6756 22.2174 57.9795 22.1162C58.3088 21.9896 58.5875 21.8119 58.8154 21.584C59.0434 21.356 59.221 21.1028 59.3477 20.8242C59.4743 20.5202 59.5381 20.2034 59.5381 19.874V7.79004H67.252V28.1201H60.1836L59.9326 25.8672C59.8543 25.9605 59.7739 26.0541 59.6895 26.1445C59.0055 26.879 58.1695 27.462 57.1816 27.8926C56.1939 28.3231 55.1427 28.538 54.0283 28.5381C52.4831 28.5381 51.1782 28.2211 50.1143 27.5879C49.0503 26.9546 48.239 26.0304 47.6816 24.8145C47.1243 23.5731 46.8457 22.0781 46.8457 20.3301V7.79004H54.5596V19.6846ZM111.18 28.1201H104.226L103.969 26.2314C103.608 26.6102 103.188 26.949 102.705 27.2461C102.072 27.6514 101.337 27.9683 100.501 28.1963C99.6651 28.4242 98.778 28.5381 97.8408 28.5381C96.169 28.538 94.6746 28.0946 93.3574 27.208C92.0655 26.2961 91.0393 25.0549 90.2793 23.4844C89.5447 21.8885 89.1778 20.0517 89.1777 17.9746C89.1777 15.9226 89.5574 14.098 90.3174 12.502C91.0774 10.906 92.1163 9.6522 93.4336 8.74023C94.7762 7.82832 96.3087 7.37207 98.0312 7.37207C98.8925 7.37207 99.7157 7.49869 100.501 7.75195C101.286 7.97994 101.996 8.32237 102.629 8.77832C102.916 8.97369 103.182 9.18806 103.428 9.41992V0H111.18V28.1201ZM185.145 19.6846C185.145 20.2417 185.234 20.71 185.411 21.0898C185.614 21.4698 185.892 21.7612 186.247 21.9639C186.602 22.1665 187.032 22.2686 187.539 22.2686C187.919 22.2685 188.261 22.2174 188.564 22.1162C188.894 21.9896 189.172 21.8119 189.4 21.584C189.628 21.356 189.806 21.1028 189.933 20.8242C190.059 20.5202 190.123 20.2034 190.123 19.874V7.79004H197.837V28.1201H190.769L190.518 25.8672C190.439 25.9605 190.359 26.054 190.274 26.1445C189.59 26.879 188.754 27.462 187.767 27.8926C186.779 28.3232 185.727 28.5381 184.612 28.5381C183.067 28.538 181.763 28.2211 180.699 27.5879C179.635 26.9546 178.824 26.0304 178.267 24.8145C177.709 23.5731 177.431 22.0781 177.431 20.3301V7.79004H185.145V19.6846ZM12.084 0.759766C14.0853 0.759766 15.7579 0.950078 17.1006 1.33008C18.4431 1.68474 19.5705 2.20378 20.4824 2.8877C21.3944 3.57168 22.1792 4.37025 22.8379 5.28223L18.0498 9.87988C17.4926 9.34802 16.9096 8.91716 16.3018 8.58789C15.6939 8.23338 15.0608 7.9801 14.4023 7.82812C13.769 7.65079 13.1353 7.5625 12.502 7.5625C11.9196 7.56251 11.4257 7.61261 11.0205 7.71387C10.6153 7.78984 10.2983 7.92928 10.0703 8.13184C9.84231 8.30917 9.72852 8.56324 9.72852 8.89258C9.72864 9.22171 9.86795 9.50062 10.1465 9.72852C10.4504 9.93104 10.8177 10.1079 11.248 10.2598C11.704 10.4117 12.1475 10.5383 12.5781 10.6396C13.0339 10.7156 13.4138 10.7794 13.7178 10.8301C15.1111 11.0834 16.3913 11.4385 17.5566 11.8945C18.7217 12.3251 19.7345 12.8826 20.5957 13.5664C21.4824 14.2251 22.1544 15.0609 22.6104 16.0742C23.0916 17.0622 23.332 18.2405 23.332 19.6084C23.332 21.5587 22.8383 23.1926 21.8506 24.5098C20.888 25.827 19.583 26.8277 17.9365 27.5117C16.2899 28.1704 14.4524 28.5 12.4258 28.5C10.4248 28.5 8.6516 28.2851 7.10645 27.8545C5.58645 27.3985 4.24346 26.7648 3.07812 25.9541C1.93819 25.1435 0.911962 24.1938 0 23.1045L4.75 17.7842C6.01661 19.4054 7.33421 20.4816 8.70215 21.0137C10.0955 21.5203 11.4002 21.7744 12.6162 21.7744C13.0975 21.7744 13.5282 21.7362 13.9082 21.6602C14.2882 21.5588 14.5796 21.4068 14.7822 21.2041C14.9849 21.0014 15.0859 20.7228 15.0859 20.3682C15.0859 20.0388 14.9721 19.7602 14.7441 19.5322C14.5415 19.3042 14.2629 19.1139 13.9082 18.9619C13.5536 18.7846 13.161 18.6453 12.7305 18.5439C12.3253 18.4173 11.9198 18.3162 11.5146 18.2402C11.1347 18.1642 10.7923 18.0877 10.4883 18.0117C8.96828 17.6571 7.63805 17.2264 6.49805 16.7197C5.35832 16.2132 4.40833 15.6056 3.64844 14.8965C2.88844 14.1872 2.31848 13.3759 1.93848 12.4639C1.58384 11.5519 1.40625 10.5257 1.40625 9.38574C1.40631 8.094 1.69776 6.91636 2.28027 5.85254C2.88822 4.78863 3.68595 3.87617 4.67383 3.11621C5.68706 2.35629 6.82724 1.77349 8.09375 1.36816C9.38569 0.96285 10.716 0.759784 12.084 0.759766ZM35.0977 7.37207C37.3017 7.37207 39.2529 7.82824 40.9502 8.74023C42.6726 9.65217 44.0149 10.9062 44.9775 12.502C45.9655 14.0726 46.46 15.8845 46.46 17.9365C46.4599 19.9884 45.9655 21.8123 44.9775 23.4082C44.0149 24.9787 42.6726 26.2199 40.9502 27.1318C39.2529 28.0438 37.3017 28.5 35.0977 28.5C32.8938 28.5 30.9306 28.0438 29.208 27.1318C27.4854 26.2198 26.1296 24.9789 25.1416 23.4082C24.1537 21.8123 23.6602 19.9883 23.6602 17.9365C23.6602 15.8845 24.1536 14.0726 25.1416 12.502C26.1296 10.906 27.4853 9.65224 29.208 8.74023C30.9306 7.82828 32.8938 7.37211 35.0977 7.37207ZM123.945 0.759766C125.946 0.759774 127.618 0.950131 128.961 1.33008C130.303 1.68468 131.431 2.20387 132.343 2.8877C133.255 3.5717 134.041 4.37023 134.699 5.28223L129.911 9.87988C129.354 9.34795 128.771 8.91719 128.163 8.58789C127.555 8.23336 126.922 7.98012 126.264 7.82812C125.63 7.6508 124.997 7.56251 124.363 7.5625C123.781 7.5625 123.286 7.61253 122.881 7.71387C122.476 7.78983 122.16 7.92941 121.932 8.13184C121.704 8.30917 121.589 8.56324 121.589 8.89258C121.589 9.22171 121.728 9.50062 122.007 9.72852C122.311 9.93118 122.679 10.1078 123.109 10.2598C123.565 10.4118 124.009 10.5383 124.439 10.6396C124.895 10.7156 125.275 10.7794 125.579 10.8301C126.972 11.0834 128.252 11.4385 129.417 11.8945C130.582 12.3252 131.596 12.8824 132.457 13.5664C133.344 14.2251 134.016 15.0609 134.472 16.0742C134.953 17.0622 135.193 18.2405 135.193 19.6084C135.193 21.5589 134.699 23.1925 133.711 24.5098C132.748 25.8271 131.444 26.8277 129.797 27.5117C128.15 28.1704 126.314 28.5 124.287 28.5C122.286 28.5 120.512 28.2852 118.967 27.8545C117.447 27.3985 116.105 26.7647 114.939 25.9541C113.8 25.1435 112.773 24.1937 111.861 23.1045L116.611 17.7842C117.878 19.4055 119.196 20.4817 120.563 21.0137C121.957 21.5203 123.262 21.7744 124.478 21.7744C124.959 21.7744 125.39 21.7361 125.77 21.6602C126.149 21.5588 126.441 21.4067 126.644 21.2041C126.846 21.0015 126.947 20.7227 126.947 20.3682C126.947 20.0389 126.833 19.7602 126.605 19.5322C126.403 19.3043 126.124 19.1139 125.77 18.9619C125.415 18.7846 125.021 18.6453 124.591 18.5439C124.186 18.4173 123.78 18.3162 123.375 18.2402C122.995 18.1643 122.653 18.0877 122.35 18.0117C120.83 17.6571 119.499 17.2264 118.359 16.7197C117.219 16.2131 116.269 15.6058 115.509 14.8965C114.749 14.1872 114.179 13.3759 113.799 12.4639C113.444 11.552 113.268 10.5256 113.268 9.38574C113.268 8.09395 113.559 6.9164 114.142 5.85254C114.75 4.78856 115.547 3.8762 116.535 3.11621C117.548 2.35623 118.688 1.7735 119.955 1.36816C121.247 0.962831 122.577 0.759766 123.945 0.759766ZM146.199 7.37207C148.023 7.3721 149.708 7.65071 151.253 8.20801C152.798 8.76527 154.052 9.57585 155.015 10.6396L151.576 15.8457C151.297 15.5417 150.227 14.9974 149.847 14.7441C149.467 14.4909 149.036 14.3005 148.555 14.1738C148.073 14.0219 147.516 13.9463 146.883 13.9463C146.123 13.9463 145.452 14.1111 144.869 14.4404C144.312 14.7697 143.881 15.2379 143.577 15.8457C143.273 16.4284 143.121 17.1131 143.121 17.8984C143.121 18.6583 143.26 19.3423 143.539 19.9502C143.843 20.5328 144.274 21.0018 144.831 21.3564C145.414 21.711 146.098 21.8877 146.883 21.8877C147.516 21.8877 148.073 21.8249 148.555 21.6982C149.036 21.5716 149.467 21.394 149.847 21.166C150.227 20.9127 151.297 20.3938 151.576 20.0645L154.977 25.2705C154.039 26.309 152.798 27.1068 151.253 27.6641C149.708 28.2214 148.023 28.5 146.199 28.5C144.147 28.5 142.31 28.0438 140.688 27.1318C139.093 26.2199 137.826 24.9787 136.889 23.4082C135.977 21.8123 135.521 19.9883 135.521 17.9365C135.521 15.8845 135.977 14.0726 136.889 12.502C137.826 10.9061 139.093 9.65221 140.688 8.74023C142.31 7.82824 144.147 7.37207 146.199 7.37207ZM81.3096 7.37207C82.8295 7.37207 84.1216 7.68897 85.1855 8.32227C86.2495 8.95557 87.0481 9.89254 87.5801 11.1338C88.1374 12.3498 88.416 13.8321 88.416 15.5801V28.1201H80.7021V16.2266C80.7021 15.6693 80.6129 15.2003 80.4355 14.8203C80.2582 14.4403 79.9924 14.149 79.6377 13.9463C79.283 13.7436 78.8651 13.6426 78.3838 13.6426C78.0038 13.6426 77.6487 13.7054 77.3193 13.832C77.0155 13.9334 76.7494 14.0983 76.5215 14.3262C76.2937 14.554 76.1169 14.8075 75.9902 15.0859C75.8636 15.3646 75.7998 15.6815 75.7998 16.0361V28.1201H68.0859V7.79004H75.2295L75.4189 9.8457C75.432 9.83196 75.4448 9.81737 75.458 9.80371C76.1926 9.04387 77.0669 8.44916 78.0801 8.01855C79.0933 7.58794 80.1697 7.3721 81.3096 7.37207ZM209.729 7.79004H213.072V14.25H209.729V28.1201H202.015V14.25H198.86V7.79004H202.015V2.66016H209.729V7.79004ZM100.159 13.6797C99.4245 13.6797 98.8035 13.8445 98.2969 14.1738C97.7903 14.5032 97.3978 14.9976 97.1191 15.6562C96.8658 16.2896 96.7393 17.0627 96.7393 17.9746C96.7393 18.8863 96.8659 19.6588 97.1191 20.292C97.3978 20.9253 97.7903 21.4198 98.2969 21.7744C98.8035 22.1037 99.4245 22.2685 100.159 22.2686C100.894 22.2686 101.515 22.1037 102.021 21.7744C102.553 21.4197 102.946 20.9253 103.199 20.292C103.478 19.6588 103.617 18.8864 103.617 17.9746C103.617 17.0627 103.478 16.2896 103.199 15.6562C102.946 14.9976 102.553 14.5032 102.021 14.1738C101.515 13.8445 100.894 13.6797 100.159 13.6797ZM35.0977 13.7939C34.3885 13.794 33.7555 13.9716 33.1982 14.3262C32.6662 14.6808 32.2356 15.1753 31.9062 15.8086C31.6023 16.4165 31.4502 17.126 31.4502 17.9365C31.4502 18.7217 31.6023 19.4312 31.9062 20.0645C32.2356 20.6723 32.6664 21.1532 33.1982 21.5078C33.7555 21.8624 34.3885 22.04 35.0977 22.04C35.7817 22.04 36.3899 21.8625 36.9219 21.5078C37.4791 21.1532 37.9099 20.6723 38.2139 20.0645C38.5178 19.4312 38.6699 18.7217 38.6699 17.9365C38.6699 17.126 38.5177 16.4165 38.2139 15.8086C37.9099 15.1753 37.4792 14.6808 36.9219 14.3262C36.3899 13.9715 35.7817 13.7939 35.0977 13.7939ZM165.303 13.7939C164.594 13.794 163.961 13.9717 163.403 14.3262C162.871 14.6808 162.441 15.1753 162.111 15.8086C161.807 16.4166 161.655 17.1259 161.655 17.9365C161.655 18.7217 161.807 19.4312 162.111 20.0645C162.441 20.6722 162.871 21.1532 163.403 21.5078C163.961 21.8624 164.594 22.04 165.303 22.04C165.987 22.04 166.595 21.8625 167.127 21.5078C167.684 21.1532 168.115 20.6723 168.419 20.0645C168.723 19.4312 168.875 18.7217 168.875 17.9365C168.875 17.126 168.723 16.4165 168.419 15.8086C168.115 15.1753 167.684 14.6808 167.127 14.3262C166.595 13.9715 165.987 13.7939 165.303 13.7939Z" fill="#4995bf"/>
</svg>
